<?xml version="1.0" encoding="UTF-8"?><svg xmlns="http://www.w3.org/2000/svg" xmlns:xlink="http://www.w3.org/1999/xlink" fill-opacity="1" color-rendering="auto" color-interpolation="auto" stroke="black" text-rendering="auto" stroke-linecap="square" width="432" stroke-miterlimit="10" stroke-opacity="1" shape-rendering="auto" fill="black" stroke-dasharray="none" font-weight="normal" stroke-width="1" height="243" font-family="'Dialog'" font-style="normal" stroke-linejoin="miter" font-size="12" stroke-dashoffset="0" image-rendering="auto">
  <!--Generated by ySVG 2.5-->
  <defs id="genericDefs"/>
  <g>
    <defs id="defs1">
      <clipPath clipPathUnits="userSpaceOnUse" id="clipPath1">
        <path d="M0 0 L432 0 L432 243 L0 243 L0 0 Z"/>
      </clipPath>
      <clipPath clipPathUnits="userSpaceOnUse" id="clipPath2">
        <path d="M115 61 L547 61 L547 304 L115 304 L115 61 Z"/>
      </clipPath>
    </defs>
    <g fill="white" text-rendering="geometricPrecision" shape-rendering="geometricPrecision" transform="translate(-115,-61)" stroke="white">
      <rect x="115" width="432" height="243" y="61" clip-path="url(#clipPath2)" stroke="none"/>
    </g>
    <g fill="rgb(255,204,0)" text-rendering="geometricPrecision" shape-rendering="geometricPrecision" transform="matrix(1,0,0,1,-115,-61)" stroke="rgb(255,204,0)">
      <rect x="130" width="80" height="47" y="159" clip-path="url(#clipPath2)" stroke="none"/>
    </g>
    <g text-rendering="geometricPrecision" stroke-miterlimit="1.45" shape-rendering="geometricPrecision" font-family="sans-serif" transform="matrix(1,0,0,1,-115,-61)" stroke-linecap="butt">
      <text x="139.127" xml:space="preserve" y="187.0352" clip-path="url(#clipPath2)" stroke="none">web pages</text>
      <rect fill="none" x="130" width="80" height="47" y="159" clip-path="url(#clipPath2)"/>
    </g>
    <g fill="rgb(255,204,0)" text-rendering="geometricPrecision" shape-rendering="geometricPrecision" transform="matrix(1,0,0,1,-115,-61)" stroke="rgb(255,204,0)">
      <rect x="285" width="80" height="47" y="159" clip-path="url(#clipPath2)" stroke="none"/>
    </g>
    <g text-rendering="geometricPrecision" stroke-miterlimit="1.45" shape-rendering="geometricPrecision" font-family="sans-serif" transform="matrix(1,0,0,1,-115,-61)" stroke-linecap="butt">
      <text x="300.4873" xml:space="preserve" y="179.9688" clip-path="url(#clipPath2)" stroke="none">backend</text>
      <text x="304.5596" xml:space="preserve" y="194.1016" clip-path="url(#clipPath2)" stroke="none">system</text>
      <rect fill="none" x="285" width="80" height="47" y="159" clip-path="url(#clipPath2)"/>
    </g>
    <g fill="rgb(255,204,0)" text-rendering="geometricPrecision" shape-rendering="geometricPrecision" transform="matrix(1,0,0,1,-115,-61)" stroke="rgb(255,204,0)">
      <rect x="452" width="80" height="47" y="159" clip-path="url(#clipPath2)" stroke="none"/>
    </g>
    <g text-rendering="geometricPrecision" stroke-miterlimit="1.45" shape-rendering="geometricPrecision" font-family="sans-serif" transform="matrix(1,0,0,1,-115,-61)" stroke-linecap="butt">
      <text x="468.9551" xml:space="preserve" y="179.9688" clip-path="url(#clipPath2)" stroke="none">weather</text>
      <text x="457.8926" xml:space="preserve" y="194.1016" clip-path="url(#clipPath2)" stroke="none">information</text>
      <rect fill="none" x="452" width="80" height="47" y="159" clip-path="url(#clipPath2)"/>
    </g>
    <g fill="rgb(255,204,0)" text-rendering="geometricPrecision" shape-rendering="geometricPrecision" transform="matrix(1,0,0,1,-115,-61)" stroke="rgb(255,204,0)">
      <rect x="452" width="80" height="47" y="242" clip-path="url(#clipPath2)" stroke="none"/>
    </g>
    <g text-rendering="geometricPrecision" stroke-miterlimit="1.45" shape-rendering="geometricPrecision" font-family="sans-serif" transform="matrix(1,0,0,1,-115,-61)" stroke-linecap="butt">
      <text x="476.1094" xml:space="preserve" y="262.9688" clip-path="url(#clipPath2)" stroke="none">plane</text>
      <text x="457.8926" xml:space="preserve" y="277.1016" clip-path="url(#clipPath2)" stroke="none">information</text>
      <rect fill="none" x="452" width="80" height="47" y="242" clip-path="url(#clipPath2)"/>
    </g>
    <g fill="rgb(255,204,0)" text-rendering="geometricPrecision" shape-rendering="geometricPrecision" transform="matrix(1,0,0,1,-115,-61)" stroke="rgb(255,204,0)">
      <rect x="452" width="80" height="47" y="76" clip-path="url(#clipPath2)" stroke="none"/>
    </g>
    <g text-rendering="geometricPrecision" stroke-miterlimit="1.45" shape-rendering="geometricPrecision" font-family="sans-serif" transform="matrix(1,0,0,1,-115,-61)" stroke-linecap="butt">
      <text x="455.042" xml:space="preserve" y="104.0352" clip-path="url(#clipPath2)" stroke="none">login system</text>
      <rect fill="none" x="452" width="80" height="47" y="76" clip-path="url(#clipPath2)"/>
      <path fill="none" d="M285 182.5 L210 182.5" clip-path="url(#clipPath2)"/>
      <path fill="none" d="M452 182.5 L365 182.5" clip-path="url(#clipPath2)"/>
      <path fill="none" d="M452 245.6198 L365 202.3802" clip-path="url(#clipPath2)"/>
      <path fill="none" d="M452 119.3802 L365 162.6198" clip-path="url(#clipPath2)"/>
    </g>
  </g>
</svg>
