<?xml version="1.0" encoding="UTF-8"?><svg xmlns="http://www.w3.org/2000/svg" xmlns:xlink="http://www.w3.org/1999/xlink" fill-opacity="1" color-rendering="auto" color-interpolation="auto" stroke="black" text-rendering="auto" stroke-linecap="square" width="255" stroke-miterlimit="10" stroke-opacity="1" shape-rendering="auto" fill="black" stroke-dasharray="none" font-weight="normal" stroke-width="1" height="197" font-family="'Dialog'" font-style="normal" stroke-linejoin="miter" font-size="12" stroke-dashoffset="0" image-rendering="auto">
  <!--Generated by ySVG 2.5-->
  <defs id="genericDefs"/>
  <g>
    <defs id="defs1">
      <clipPath clipPathUnits="userSpaceOnUse" id="clipPath1">
        <path d="M0 0 L255 0 L255 197 L0 197 L0 0 Z"/>
      </clipPath>
      <clipPath clipPathUnits="userSpaceOnUse" id="clipPath2">
        <path d="M103 104 L358 104 L358 301 L103 301 L103 104 Z"/>
      </clipPath>
    </defs>
    <g fill="white" text-rendering="geometricPrecision" shape-rendering="geometricPrecision" transform="translate(-103,-104)" stroke="white">
      <rect x="103" width="255" height="197" y="104" clip-path="url(#clipPath2)" stroke="none"/>
    </g>
    <g fill="rgb(255,204,0)" text-rendering="geometricPrecision" shape-rendering="geometricPrecision" transform="matrix(1,0,0,1,-103,-104)" stroke="rgb(255,204,0)">
      <rect x="263" width="80" height="47" y="225.5" clip-path="url(#clipPath2)" stroke="none"/>
    </g>
    <g text-rendering="geometricPrecision" stroke-miterlimit="1.45" shape-rendering="geometricPrecision" font-family="sans-serif" transform="matrix(1,0,0,1,-103,-104)" stroke-linecap="butt">
      <text x="285.293" xml:space="preserve" y="253.5352" clip-path="url(#clipPath2)" stroke="none">Model</text>
      <rect fill="none" x="263" width="80" height="47" y="225.5" clip-path="url(#clipPath2)"/>
    </g>
    <g fill="rgb(255,204,0)" text-rendering="geometricPrecision" shape-rendering="geometricPrecision" transform="matrix(1,0,0,1,-103,-104)" stroke="rgb(255,204,0)">
      <rect x="118" width="80" height="47" y="225.5" clip-path="url(#clipPath2)" stroke="none"/>
    </g>
    <g text-rendering="geometricPrecision" stroke-miterlimit="1.45" shape-rendering="geometricPrecision" font-family="sans-serif" transform="matrix(1,0,0,1,-103,-104)" stroke-linecap="butt">
      <text x="144.377" xml:space="preserve" y="253.5352" clip-path="url(#clipPath2)" stroke="none">View</text>
      <rect fill="none" x="118" width="80" height="47" y="225.5" clip-path="url(#clipPath2)"/>
    </g>
    <g fill="rgb(255,204,0)" text-rendering="geometricPrecision" shape-rendering="geometricPrecision" transform="matrix(1,0,0,1,-103,-104)" stroke="rgb(255,204,0)">
      <rect x="188" width="80" height="47" y="119.5" clip-path="url(#clipPath2)" stroke="none"/>
    </g>
    <g text-rendering="geometricPrecision" stroke-miterlimit="1.45" shape-rendering="geometricPrecision" font-family="sans-serif" transform="matrix(1,0,0,1,-103,-104)" stroke-linecap="butt">
      <text x="198.7881" xml:space="preserve" y="147.5352" clip-path="url(#clipPath2)" stroke="none">Controller</text>
      <rect fill="none" x="188" width="80" height="47" y="119.5" clip-path="url(#clipPath2)"/>
      <path fill="none" d="M272.6619 272.4926 L266.75 276.1875 L257.6875 280.1523 L248.625 282.9844 L239.5625 284.6836 L230.5 285.25 L221.4375 284.6836 L212.375 282.9844 L203.3125 280.1523 L195.201 276.6036 L195.1163 276.5506" clip-path="url(#clipPath2)"/>
      <path d="M188.2523 272.4412 L195.9799 282.8952 L195.9742 277.0642 L201.1166 274.3153 Z" clip-path="url(#clipPath2)" stroke="none"/>
      <path fill="none" d="M155.2213 225.498 L155.625 209.375 L159.4062 192.8438 L166.5 178.5 L176.9062 166.3438 L181.5541 162.9664" clip-path="url(#clipPath2)"/>
      <path d="M188.0259 158.2636 L175.379 161.2728 L180.7452 163.5542 L181.2574 169.3626 Z" clip-path="url(#clipPath2)" stroke="none"/>
      <path fill="none" d="M267.9977 156.3691 L280.9688 165.1719 L286.8984 170.918 L292 177.25 L296.2734 184.168 L299.7188 191.6719 L304.125 208.4375 L304.6441 217.5072" clip-path="url(#clipPath2)"/>
      <path d="M305.1013 225.4941 L309.4073 213.228 L304.5869 216.5088 L299.4237 213.7994 Z" clip-path="url(#clipPath2)" stroke="none"/>
    </g>
  </g>
</svg>
