<?xml version="1.0" encoding="UTF-8"?><svg xmlns="http://www.w3.org/2000/svg" xmlns:xlink="http://www.w3.org/1999/xlink" fill-opacity="1" color-rendering="auto" color-interpolation="auto" stroke="black" text-rendering="auto" stroke-linecap="square" width="255" stroke-miterlimit="10" stroke-opacity="1" shape-rendering="auto" fill="black" stroke-dasharray="none" font-weight="normal" stroke-width="1" height="184" font-family="'Dialog'" font-style="normal" stroke-linejoin="miter" font-size="12" stroke-dashoffset="0" image-rendering="auto">
  <!--Generated by ySVG 2.5-->
  <defs id="genericDefs"/>
  <g>
    <defs id="defs1">
      <clipPath clipPathUnits="userSpaceOnUse" id="clipPath1">
        <path d="M0 0 L255 0 L255 184 L0 184 L0 0 Z"/>
      </clipPath>
      <clipPath clipPathUnits="userSpaceOnUse" id="clipPath2">
        <path d="M103 104 L358 104 L358 288 L103 288 L103 104 Z"/>
      </clipPath>
    </defs>
    <g fill="white" text-rendering="geometricPrecision" shape-rendering="geometricPrecision" transform="translate(-103,-104)" stroke="white">
      <rect x="103" width="255" height="184" y="104" clip-path="url(#clipPath2)" stroke="none"/>
    </g>
    <g fill="rgb(255,204,0)" text-rendering="geometricPrecision" shape-rendering="geometricPrecision" transform="matrix(1,0,0,1,-103,-104)" stroke="rgb(255,204,0)">
      <rect x="263" width="80" height="47" y="225.5" clip-path="url(#clipPath2)" stroke="none"/>
    </g>
    <g text-rendering="geometricPrecision" stroke-miterlimit="1.45" shape-rendering="geometricPrecision" font-family="sans-serif" transform="matrix(1,0,0,1,-103,-104)" stroke-linecap="butt">
      <text x="285.293" xml:space="preserve" y="253.5352" clip-path="url(#clipPath2)" stroke="none">Model</text>
      <rect fill="none" x="263" width="80" height="47" y="225.5" clip-path="url(#clipPath2)"/>
    </g>
    <g fill="rgb(255,204,0)" text-rendering="geometricPrecision" shape-rendering="geometricPrecision" transform="matrix(1,0,0,1,-103,-104)" stroke="rgb(255,204,0)">
      <rect x="118" width="80" height="47" y="225.5" clip-path="url(#clipPath2)" stroke="none"/>
    </g>
    <g text-rendering="geometricPrecision" stroke-miterlimit="1.45" shape-rendering="geometricPrecision" font-family="sans-serif" transform="matrix(1,0,0,1,-103,-104)" stroke-linecap="butt">
      <text x="144.377" xml:space="preserve" y="253.5352" clip-path="url(#clipPath2)" stroke="none">View</text>
      <rect fill="none" x="118" width="80" height="47" y="225.5" clip-path="url(#clipPath2)"/>
    </g>
    <g fill="rgb(255,204,0)" text-rendering="geometricPrecision" shape-rendering="geometricPrecision" transform="matrix(1,0,0,1,-103,-104)" stroke="rgb(255,204,0)">
      <rect x="188" width="80" height="47" y="119.5" clip-path="url(#clipPath2)" stroke="none"/>
    </g>
    <g text-rendering="geometricPrecision" stroke-miterlimit="1.45" shape-rendering="geometricPrecision" font-family="sans-serif" transform="matrix(1,0,0,1,-103,-104)" stroke-linecap="butt">
      <text x="198.7881" xml:space="preserve" y="147.5352" clip-path="url(#clipPath2)" stroke="none">Controller</text>
      <rect fill="none" x="188" width="80" height="47" y="119.5" clip-path="url(#clipPath2)"/>
      <path fill="none" d="M198 249 L263 249" clip-path="url(#clipPath2)"/>
      <path fill="none" d="M212.4811 166.5 L173.5189 225.5" clip-path="url(#clipPath2)"/>
      <path fill="none" d="M244.6274 166.5 L286.3727 225.5" clip-path="url(#clipPath2)"/>
    </g>
  </g>
</svg>
