<?xml version="1.0" encoding="UTF-8"?><svg xmlns="http://www.w3.org/2000/svg" xmlns:xlink="http://www.w3.org/1999/xlink" fill-opacity="1" color-rendering="auto" color-interpolation="auto" stroke="black" text-rendering="auto" stroke-linecap="square" width="255" stroke-miterlimit="10" stroke-opacity="1" shape-rendering="auto" fill="black" stroke-dasharray="none" font-weight="normal" stroke-width="1" height="196" font-family="'Dialog'" font-style="normal" stroke-linejoin="miter" font-size="12" stroke-dashoffset="0" image-rendering="auto">
  <!--Generated by ySVG 2.5-->
  <defs id="genericDefs"/>
  <g>
    <defs id="defs1">
      <clipPath clipPathUnits="userSpaceOnUse" id="clipPath1">
        <path d="M0 0 L255 0 L255 196 L0 196 L0 0 Z"/>
      </clipPath>
      <clipPath clipPathUnits="userSpaceOnUse" id="clipPath2">
        <path d="M128 130 L383 130 L383 326 L128 326 L128 130 Z"/>
      </clipPath>
    </defs>
    <g fill="white" text-rendering="geometricPrecision" shape-rendering="geometricPrecision" transform="translate(-128,-130)" stroke="white">
      <rect x="128" width="255" height="196" y="130" clip-path="url(#clipPath2)" stroke="none"/>
    </g>
    <g fill="rgb(255,204,0)" text-rendering="geometricPrecision" shape-rendering="geometricPrecision" transform="matrix(1,0,0,1,-128,-130)" stroke="rgb(255,204,0)">
      <rect x="288" width="80" height="47" y="251" clip-path="url(#clipPath2)" stroke="none"/>
    </g>
    <g text-rendering="geometricPrecision" stroke-miterlimit="1.45" shape-rendering="geometricPrecision" font-family="sans-serif" transform="matrix(1,0,0,1,-128,-130)" stroke-linecap="butt">
      <text x="310.293" xml:space="preserve" y="279.0352" clip-path="url(#clipPath2)" stroke="none">Model</text>
      <rect fill="none" x="288" width="80" height="47" y="251" clip-path="url(#clipPath2)"/>
    </g>
    <g fill="rgb(255,204,0)" text-rendering="geometricPrecision" shape-rendering="geometricPrecision" transform="matrix(1,0,0,1,-128,-130)" stroke="rgb(255,204,0)">
      <rect x="143" width="80" height="47" y="251" clip-path="url(#clipPath2)" stroke="none"/>
    </g>
    <g text-rendering="geometricPrecision" stroke-miterlimit="1.45" shape-rendering="geometricPrecision" font-family="sans-serif" transform="matrix(1,0,0,1,-128,-130)" stroke-linecap="butt">
      <text x="169.377" xml:space="preserve" y="279.0352" clip-path="url(#clipPath2)" stroke="none">View</text>
      <rect fill="none" x="143" width="80" height="47" y="251" clip-path="url(#clipPath2)"/>
    </g>
    <g fill="rgb(255,204,0)" text-rendering="geometricPrecision" shape-rendering="geometricPrecision" transform="matrix(1,0,0,1,-128,-130)" stroke="rgb(255,204,0)">
      <rect x="213" width="80" height="47" y="145" clip-path="url(#clipPath2)" stroke="none"/>
    </g>
    <g text-rendering="geometricPrecision" stroke-miterlimit="1.45" shape-rendering="geometricPrecision" font-family="sans-serif" transform="matrix(1,0,0,1,-128,-130)" stroke-linecap="butt">
      <text x="223.7881" xml:space="preserve" y="173.0352" clip-path="url(#clipPath2)" stroke="none">Controller</text>
      <rect fill="none" x="213" width="80" height="47" y="145" clip-path="url(#clipPath2)"/>
      <path fill="none" d="M297.6619 297.9926 L291.75 301.6875 L282.6875 305.6523 L273.625 308.4844 L264.5625 310.1836 L255.5 310.75 L246.4375 310.1836 L237.375 308.4844 L228.3125 305.6523 L220.201 302.1036 L220.1163 302.0506" clip-path="url(#clipPath2)"/>
      <path d="M213.2523 297.9412 L220.9799 308.3952 L220.9742 302.5642 L226.1166 299.8153 Z" clip-path="url(#clipPath2)" stroke="none"/>
      <path fill="none" d="M223 274.5 L280 274.5" clip-path="url(#clipPath2)"/>
      <path d="M288 274.5 L276 269.5 L279 274.5 L276 279.5 Z" clip-path="url(#clipPath2)" stroke="none"/>
      <path fill="none" d="M180.2213 250.998 L180.625 234.875 L184.4062 218.3438 L191.5 204 L201.9062 191.8438 L206.5541 188.4664" clip-path="url(#clipPath2)"/>
      <path d="M213.0259 183.7636 L200.379 186.7728 L205.7452 189.0542 L206.2574 194.8626 Z" clip-path="url(#clipPath2)" stroke="none"/>
      <path fill="none" d="M311.3727 251 L274.2481 198.5306" clip-path="url(#clipPath2)"/>
      <path d="M269.6273 192 L272.4768 204.6839 L274.8257 199.3469 L280.6401 198.908 Z" clip-path="url(#clipPath2)" stroke="none"/>
      <path fill="none" d="M292.9977 181.8691 L305.9688 190.6719 L311.8984 196.418 L317 202.75 L321.2734 209.668 L324.7188 217.1719 L329.125 233.9375 L329.6441 243.0072" clip-path="url(#clipPath2)"/>
      <path d="M330.1013 250.9941 L334.4073 238.728 L329.5869 242.0088 L324.4237 239.2994 Z" clip-path="url(#clipPath2)" stroke="none"/>
      <path fill="none" d="M237.4811 192 L202.9274 244.3243" clip-path="url(#clipPath2)"/>
      <path d="M198.5189 251 L209.3039 243.7417 L203.4784 243.4898 L200.9593 238.2311 Z" clip-path="url(#clipPath2)" stroke="none"/>
    </g>
  </g>
</svg>
